# xmcd CD database file
#
# Track frame offsets:
#	150
#	13012
#	26115
#	35865
#	50965
#	62400
#	79285
#	88647
#	102645
#	116287
#	129232
#	142372
#
# Disc length: 2093 seconds
#
# Revision: 0
# Processed by: cddbd v1.5.1PL0 Copyright (c) Steve Scherf et al.
# Submitted via: CDex 1.50
#
DISCID=ae082b0c
DTITLE=Frank Sinatra - SOUTH OF THE BODER
DYEAR=1992
DGENRE=Jazz
TTITLE0=SOUTH OF THE BODER
TTITLE1=ALL THE WAY
TTITLE2=ALL OF ME
TTITLE3=AROUND THE WORLD
TTITLE4=MY FUNNY VALENTINE
TTITLE5=I'VE GOT YOU UNDER MY SKIN
TTITLE6=YOU'D BE SO NICE TO COME HOME TO
TTITLE7=THREE COINS IN THE FOUNTAIN
TTITLE8=FROM HERE TO ETERNITY
TTITLE9=YOUNG AT HEART
TTITLE10=WITCHCRAFT
TTITLE11=THE LADY IS A TRAMP
EXTD=YEAR: 1992
EXTT0=
EXTT1=
EXTT2=
EXTT3=
EXTT4=
EXTT5=
EXTT6=
EXTT7=
EXTT8=
EXTT9=
EXTT10=
EXTT11=
PLAYORDER=
